PathFileType	4	(X/Y/Z)	Kaydara	
DataRate	CameraRate	NumFrames	NumMarkers	Units	OrigDataRate	OrigDataStartFrame	OrigNumFrames	
60.00	60.00	4	74	mm	60.00	1951	201	
Frame#	Time	Z_lasi			Z_rasi			Z_rpsi			Z_lpsi			Z_fneck			Z_bneck			Z_fhead			Z_rhead			Z_lhead			Z_rshld			Z_relbtop			Z_relbext			Z_relblow			Z_rwrext			Z_rwrtop			Z_rwrlow			Z_lshld			Z_lelbext			Z_lelblow			Z_lelbtop			Z_lwrext			Z_lwrtop			Z_lwrlow			Z_rtopleg			Z_ltopleg			Z_rkneefr			Z_rkneebk			Z_rkneeis			Z_lkneefr			Z_lknssbk			Z_lkneeis			Z_rankfr			Z_rankis			Z_rankbk			Z_lankfr			Z_lankbk			Z_lankis			A_lasi			A_rasi			A_rpsi			A_lpsi			A_fneck			A_bneck			A_fhead			A_rhead			A_lhead			A_rshld			A_relbtop			A_relbext			A_relblow			A_rwrext			A_rwrtop			A_rwrlow			A_lshld			A_lelbext			A_lelblow			A_lelbtop			A_lwrext			A_lwrtop			A_lwrlow			A_rtopleg			A_ltopleg			A_rkneefr			A_rkneebk			A_rkneeis			A_lkneefr			A_lknssbk			A_lkneeis			A_rankfr			A_rankis			A_rankbk			A_lankfr			A_lankbk			A_lankis			
		X1	Y1	Z1	X2	Y2	Z2	X3	Y3	Z3	X4	Y4	Z4	X5	Y5	Z5	X6	Y6	Z6	X7	Y7	Z7	X8	Y8	Z8	X9	Y9	Z9	X10	Y10	Z10	X11	Y11	Z11	X12	Y12	Z12	X13	Y13	Z13	X14	Y14	Z14	X15	Y15	Z15	X16	Y16	Z16	X17	Y17	Z17	X18	Y18	Z18	X19	Y19	Z19	X20	Y20	Z20	X21	Y21	Z21	X22	Y22	Z22	X23	Y23	Z23	X24	Y24	Z24	X25	Y25	Z25	X26	Y26	Z26	X27	Y27	Z27	X28	Y28	Z28	X29	Y29	Z29	X30	Y30	Z30	X31	Y31	Z31	X32	Y32	Z32	X33	Y33	Z33	X34	Y34	Z34	X35	Y35	Z35	X36	Y36	Z36	X37	Y37	Z37	X38	Y38	Z38	X39	Y39	Z39	X40	Y40	Z40	X41	Y41	Z41	X42	Y42	Z42	X43	Y43	Z43	X44	Y44	Z44	X45	Y45	Z45	X46	Y46	Z46	X47	Y47	Z47	X48	Y48	Z48	X49	Y49	Z49	X50	Y50	Z50	X51	Y51	Z51	X52	Y52	Z52	X53	Y53	Z53	X54	Y54	Z54	X55	Y55	Z55	X56	Y56	Z56	X57	Y57	Z57	X58	Y58	Z58	X59	Y59	Z59	X60	Y60	Z60	X61	Y61	Z61	X62	Y62	Z62	X63	Y63	Z63	X64	Y64	Z64	X65	Y65	Z65	X66	Y66	Z66	X67	Y67	Z67	X68	Y68	Z68	X69	Y69	Z69	X70	Y70	Z70	X71	Y71	Z71	X72	Y72	Z72	X73	Y73	Z73	X74	Y74	Z74	

151	32.500	-263.52385	1061.94443	660.04410	-301.33930	1075.03059	454.79664	-123.61958	1112.46719	384.97036	-72.99463	1093.45665	626.59134	-268.99511	1431.46896	561.02615	-165.64960	1501.15906	582.00249	-358.43452	1636.29700	531.23814	-190.83454	1646.84448	519.30744	-242.97457	1625.47897	656.31554	-207.77748	1436.48712	356.66039	-157.51816	1119.57512	265.95791	-137.14832	1101.04279	321.29295	-227.13139	1129.09920	299.36935	-259.15899	893.52760	262.27015	-293.87480	907.72202	288.84035	-273.32371	901.63734	326.33862	-173.09669	1422.70218	751.51474	-135.65193	1103.09494	754.29688	-199.81174	1123.80028	814.79126	-131.55251	1121.75148	823.57483	-265.66389	866.96762	803.81371	-252.90371	859.95026	848.87466	-206.65903	855.26352	840.35500	-169.45463	922.50938	331.41220	-171.28914	886.52397	700.24033	-266.83393	417.73251	356.49273	-191.50345	449.91695	316.95589	-212.69146	426.97262	437.86156	-201.31765	441.39793	690.90034	-93.77526	471.44432	689.00574	-179.02084	432.00844	601.26278	-207.36208	178.33265	336.30322	-191.39242	173.34793	400.58880	-130.79463	175.43596	338.44685	-136.16042	164.93015	726.48209	-71.77178	163.74430	678.70697	-147.00720	166.63704	652.78816	-966.59554	1031.56181	481.06117	-957.20688	1038.56705	640.35751	-1117.48291	1037.79510	656.96205	-1090.40329	1041.94939	475.23338	-1035.06294	1378.64670	571.77692	-1168.95828	1421.75339	561.14693	-961.39297	1576.79169	586.24931	-1113.23967	1562.02805	666.04156	-1108.61206	1569.78683	502.96288	-1120.42984	1347.87994	746.94756	-1093.81180	1054.87938	777.75635	-1152.52991	1045.99083	750.88844	-1086.47461	1044.33769	720.17693	-1064.82582	808.62495	800.36751	-1021.50131	821.29654	795.61790	-1022.20108	820.18990	756.01875	-1065.49545	1353.18771	391.65874	-1093.98018	1042.37274	372.39964	-1026.07323	1050.40131	396.30867	-1050.96733	1049.02557	347.86297	-1006.41708	824.86160	380.11097	-1005.01022	827.45018	341.57898	-961.42708	834.00909	353.52558	-1066.92719	876.85310	738.32138	-1025.66780	890.37025	400.92991	-1027.10884	451.42677	653.92303	-1137.00943	488.52043	691.46698	-1109.74472	486.06655	574.30645	-1010.94948	463.66299	512.87674	-1093.98041	480.72632	417.26723	-1116.77849	479.34807	541.48335	-1103.32634	167.31253	676.49391	-1131.21956	163.40254	607.98378	-1184.27383	155.98178	673.85323	-1066.53030	166.20514	457.79305	-1127.91985	168.89368	422.75043	-1125.72533	173.23236	512.14592 
152	32.517	-264.20273	1061.41159	652.67426	-303.13440	1074.89014	447.73144	-125.35166	1112.51305	377.42714	-73.57319	1092.70264	619.08001	-269.76807	1431.44516	552.99213	-166.18372	1501.06049	573.40801	-358.99254	1636.36246	522.92000	-191.49212	1646.35101	509.31911	-242.05656	1626.33972	646.90117	-208.55133	1435.63354	348.46008	-159.42268	1118.60008	258.05050	-138.88100	1100.01549	313.30194	-228.85199	1128.26370	291.49378	-261.15946	892.65060	254.19687	-295.74722	906.92345	281.08912	-275.47398	900.89455	318.31507	-173.83205	1423.05328	743.29689	-135.35538	1103.99513	746.14082	-200.48183	1123.87863	806.14250	-132.19424	1122.12425	815.69366	-266.57125	867.59857	794.09042	-254.02967	860.32433	839.13956	-207.73571	855.56992	831.25626	-171.94193	922.64183	323.84209	-171.24058	886.05080	692.45827	-267.85177	417.26025	353.86593	-193.24650	449.22615	313.15556	-213.02612	427.35619	434.51302	-201.72321	441.36208	687.32681	-94.20513	471.46221	684.11728	-180.17338	431.74629	597.30583	-207.92887	177.68265	335.31799	-191.33795	173.35281	399.56478	-131.33135	175.03689	336.83266	-135.87320	165.50016	725.09911	-71.89143	163.84506	676.98311	-147.28027	166.39393	651.45393	-966.54648	1031.58264	480.85678	-957.23701	1038.63731	640.44731	-1117.33826	1037.77023	657.01813	-1090.40688	1041.95175	475.29228	-1035.01221	1378.59406	571.72150	-1168.85971	1421.81229	561.32820	-961.07498	1576.66382	586.03424	-1112.65701	1562.06299	666.09123	-1108.45436	1569.74457	503.02208	-1120.04005	1347.84500	746.98669	-1093.48587	1054.88220	777.82196	-1152.14073	1045.96046	750.95612	-1086.14037	1044.45618	720.21622	-1064.22745	808.62907	800.36880	-1021.09467	821.28967	795.52338	-1021.77139	820.24437	755.88295	-1065.70602	1353.15994	391.64997	-1094.15550	1042.30408	372.47616	-1026.23764	1050.35645	396.33335	-1051.16226	1048.98483	347.88513	-1006.55479	824.86359	379.92409	-1005.21896	827.42561	341.55693	-961.57799	834.00238	353.39046	-1066.62476	876.97159	738.32695	-1025.73463	890.39497	400.87555	-1027.00478	451.42162	653.88084	-1136.85486	488.52634	691.47034	-1109.65210	486.07830	574.30878	-1010.49149	463.75244	512.57256	-1093.97461	480.74776	417.26219	-1116.69556	479.35272	541.50398	-1103.14354	167.31306	676.39153	-1131.18607	163.40595	608.00575	-1184.22585	156.00696	673.89748	-1066.54099	166.19516	457.79366	-1127.92404	168.91813	422.73899	-1125.68741	173.20869	512.11895 
153	32.533	-264.96151	1060.98488	645.42389	-304.67651	1074.80766	440.68455	-126.77115	1112.56195	369.85470	-74.19921	1092.06894	611.40446	-270.46267	1431.42532	545.01209	-166.69609	1500.92896	564.76166	-359.56966	1636.41495	514.75071	-192.17670	1645.83908	499.49760	-241.84662	1626.85257	637.77519	-209.54807	1434.88007	340.30178	-161.26202	1117.71889	250.35595	-140.62239	1099.16824	305.56993	-230.61296	1127.42455	283.80356	-262.89877	891.76102	246.37424	-297.66157	905.99190	272.74223	-277.36300	899.93637	310.34414	-174.40689	1423.41354	735.18188	-135.77831	1104.25484	738.21030	-200.99983	1124.19724	797.59727	-132.75948	1122.44339	807.72903	-267.02152	867.99423	784.14536	-255.27262	860.62424	829.34219	-208.96397	855.88593	821.96381	-174.50428	922.75833	316.40778	-171.08076	885.59448	684.69215	-268.56991	416.73130	351.37573	-194.60831	448.66085	309.13687	-213.30019	427.93697	431.21288	-202.01611	441.42342	683.64250	-94.76839	471.27251	679.69734	-181.38245	431.73508	593.26283	-208.43075	177.22754	334.35192	-191.27995	173.61673	398.36628	-131.75201	174.74230	335.09747	-135.74124	166.02354	723.94905	-72.30392	163.87735	675.49568	-147.78735	166.14584	650.35545	-966.64680	1031.58791	481.06308	-957.03033	1038.67813	640.03616	-1117.23137	1037.77679	657.04842	-1090.36743	1041.94199	475.37476	-1034.95430	1378.55698	571.66939	-1168.73001	1421.82571	561.55647	-960.71068	1576.55396	585.70492	-1112.11403	1562.06940	666.16875	-1108.28377	1569.68460	503.09921	-1119.77020	1347.82272	747.05513	-1093.10875	1054.86549	777.89925	-1151.76598	1045.93063	751.08597	-1085.74303	1044.55261	720.25780	-1063.65105	808.66905	800.37354	-1020.70755	821.34247	795.33241	-1021.41846	820.20340	755.78598	-1065.84648	1353.13614	391.65329	-1094.28673	1042.30965	372.52037	-1026.32561	1050.35431	396.29326	-1051.32896	1048.95927	347.90356	-1006.77933	824.83932	379.83391	-1005.40207	827.39487	341.53603	-961.69510	834.01398	353.26870	-1066.40633	876.99509	738.35693	-1025.69588	890.42488	400.88028	-1026.89705	451.41853	653.86902	-1136.67152	488.54729	691.49391	-1109.55986	486.10760	574.32312	-1010.37056	463.73634	512.54662	-1093.92403	480.75352	417.27356	-1116.60172	479.35455	541.51337	-1103.10104	167.31659	676.41304	-1131.17844	163.40918	608.02139	-1184.15993	156.01327	673.91335	-1066.52008	166.20449	457.78305	-1127.91122	168.91455	422.75360	-1125.67001	173.21655	512.14828 
154	32.550	-265.71419	1060.63416	638.30345	-306.11771	1074.77463	433.69286	-128.36757	1112.48581	362.40746	-75.00806	1091.44630	603.83385	-271.32763	1431.34216	537.12654	-167.21457	1500.76401	556.21937	-360.16846	1636.40060	506.52210	-192.91693	1645.22491	489.71714	-241.30383	1627.52563	628.57357	-210.77400	1434.20319	332.19212	-163.01050	1116.87943	242.74820	-142.48228	1098.31177	298.05296	-232.41650	1126.61575	276.26541	-264.48917	890.76981	238.58299	-299.42711	905.07217	264.97562	-279.22785	899.13780	302.48875	-174.91213	1423.72879	727.05032	-136.38675	1104.32419	730.32799	-201.33034	1124.45007	789.10820	-133.33179	1122.79190	799.64088	-266.90491	868.28720	773.84338	-256.49960	861.04576	819.47235	-210.19470	856.14609	812.60574	-177.02797	922.81517	308.88350	-170.80805	885.23071	676.95244	-269.04436	416.32183	348.65829	-195.72889	447.99038	305.35614	-213.04512	428.45829	427.75837	-202.45876	441.60244	680.09094	-94.96742	471.44894	674.23210	-182.71553	431.82255	589.15352	-208.69698	176.75142	333.19489	-191.02512	173.74365	397.30022	-132.01639	174.36512	333.51788	-135.24113	166.62954	722.40707	-72.41696	164.03997	673.62297	-148.18214	165.94912	649.17145	-966.66565	1031.58760	481.04038	-956.92848	1038.67516	639.97353	-1117.13226	1037.76154	657.09435	-1090.64629	1041.85921	475.24540	-1034.84711	1378.51639	571.64753	-1168.52501	1421.79886	561.70353	-960.43304	1576.47720	585.38254	-1111.64818	1562.04147	666.25343	-1108.12416	1569.58679	503.16238	-1119.53133	1347.79709	747.08977	-1092.64450	1054.84436	777.91794	-1151.38023	1045.91370	751.19484	-1085.23331	1044.61807	720.25291	-1063.21960	808.73444	800.47470	-1019.94453	821.33240	795.40436	-1021.12991	820.21240	755.73257	-1065.95497	1353.11783	391.67072	-1094.38629	1042.27272	372.54986	-1026.39809	1050.34073	396.27064	-1051.49338	1048.93990	347.92568	-1006.82243	824.85405	379.71462	-1005.49889	827.38091	341.50215	-961.78848	834.00368	353.19500	-1066.20209	877.02705	738.36678	-1025.66658	890.47417	400.85819	-1026.78368	451.42277	653.85071	-1136.50978	488.54691	691.51878	-1109.47884	486.12774	574.33586	-1010.25688	463.75141	512.55188	-1093.84941	480.75130	417.29015	-1116.51962	479.36192	541.54163	-1103.07838	167.36519	676.20964	-1131.12396	163.41875	608.02212	-1184.09866	156.03105	673.92929	-1066.49796	166.18547	457.78202	-1127.91374	168.91127	422.76829	-1125.61714	173.19962	512.11784 
